<svg width="150" height="150" viewBox="0 0 150 150" fill="none" xmlns="http://www.w3.org/2000/svg">
<rect width="150" height="150" fill="white"/>
<path d="M91.512 43.64L61.752 79.256L60.696 76.76L45.624 95.096L42.456 81.752L73.176 43.64H91.512ZM50.52 43.64V107H34.008V43.64H50.52ZM67.128 64.568L92.664 107H73.944L54.744 73.784L67.128 64.568ZM107.483 90.488C110.491 90.488 112.827 91.256 114.491 92.792C116.219 94.328 117.083 96.472 117.083 99.224C117.083 101.912 116.219 104.024 114.491 105.56C112.827 107.096 110.491 107.864 107.483 107.864C104.539 107.864 102.203 107.096 100.475 105.56C98.7465 104.024 97.8825 101.912 97.8825 99.224C97.8825 96.472 98.7465 94.328 100.475 92.792C102.203 91.256 104.539 90.488 107.483 90.488Z" fill="black"/>
</svg>
